<svg viewBox="0 0 18 19" fill="currentColor" xmlns="http://www.w3.org/2000/svg">
<path d="M11.7794 18.9026C11.6295 19.0325 11.3849 19.0325 11.2344 18.9026C11.0845 18.7733 11.0845 18.561 11.2344 18.4311L16.4387 13.9325H4.24071C1.902 13.9325 0 12.2865 0 10.2659V0.333354C0 0.149551 0.172639 -2.64165e-06 0.385549 -2.64165e-06C0.59813 -2.64165e-06 0.770768 0.149551 0.770768 0.333354V10.2641C0.770768 11.9181 2.32749 13.2641 4.24038 13.2641H16.607L11.2354 8.62333C11.0849 8.49376 11.0849 8.28141 11.2354 8.15184C11.311 8.08619 11.4094 8.0548 11.5081 8.0548C11.6074 8.0548 11.7054 8.08733 11.7804 8.15184L18 13.5255L11.7794 18.9026Z" fill="black"/>
</svg>
